<?xml version="1.0" encoding="UTF-8" standalone="no"?>
<!DOCTYPE svg PUBLIC "-//W3C//DTD SVG 1.1//EN" "http://www.w3.org/Graphics/SVG/1.1/DTD/svg11.dtd">
<svg width="100%" height="100%" viewBox="0 0 128 128" version="1.1" xmlns="http://www.w3.org/2000/svg" xmlns:xlink="http://www.w3.org/1999/xlink" xml:space="preserve" xmlns:serif="http://www.serif.com/" style="fill-rule:evenodd;clip-rule:evenodd;stroke-linejoin:round;stroke-miterlimit:2;">
    <rect x="1.581" y="1.893" width="124.43" height="124.245" style="fill:url(#_Linear1);"/>
    <g transform="matrix(2.52615,0,0,2.52615,-67.8582,-153.112)">
        <text x="36.163px" y="108.009px" style="font-family:'ArialMT', 'Arial', sans-serif;font-size:12px;">BEST</text>
    </g>
    <g transform="matrix(4.2366,0,0,4.2366,61.3375,49.3596)">
        <g transform="matrix(1,0,0,1,-12,-12)">
            <g>
                <rect x="0" y="0" width="24" height="24" style="fill:none;"/>
            </g>
            <g>
                <g>
                    <path d="M13,8.57C12.21,8.57 11.57,9.21 11.57,10C11.57,10.79 12.21,11.43 13,11.43C13.79,11.43 14.43,10.79 14.43,10C14.43,9.21 13.79,8.57 13,8.57Z" style="fill-rule:nonzero;"/>
                    <path d="M13,3C9.25,3 6.2,5.94 6.02,9.64L4.1,12.2C3.85,12.53 4.09,13 4.5,13L6,13L6,16C6,17.1 6.9,18 8,18L9,18L9,21L16,21L16,16.32C18.36,15.2 20,12.79 20,10C20,6.13 16.87,3 13,3ZM16,10C16,10.13 15.99,10.26 15.98,10.39L16.81,11.05C16.89,11.11 16.91,11.21 16.86,11.3L16.06,12.69C16.01,12.78 15.9,12.81 15.82,12.78L14.83,12.38C14.62,12.54 14.4,12.67 14.16,12.77L14,13.83C13.99,13.93 13.9,14 13.8,14L12.2,14C12.1,14 12.02,13.93 12,13.83L11.85,12.77C11.6,12.67 11.38,12.54 11.17,12.38L10.18,12.78C10.09,12.81 9.98,12.78 9.93,12.69L9.13,11.3C9.08,11.22 9.1,11.11 9.18,11.05L10.02,10.39C10.01,10.26 10,10.13 10,10C10,9.87 10.02,9.73 10.04,9.61L9.19,8.95C9.11,8.89 9.09,8.79 9.14,8.69L9.94,7.31C9.99,7.22 10.09,7.19 10.18,7.22L11.18,7.62C11.38,7.47 11.61,7.33 11.85,7.23L12,6.17C12.02,6.07 12.1,6 12.2,6L13.8,6C13.9,6 13.98,6.07 14,6.17L14.15,7.23C14.39,7.33 14.61,7.46 14.82,7.62L15.82,7.22C15.91,7.19 16.02,7.22 16.06,7.31L16.86,8.69C16.91,8.78 16.89,8.89 16.81,8.95L15.96,9.61C15.99,9.73 16,9.86 16,10Z" style="fill-rule:nonzero;"/>
                </g>
            </g>
        </g>
    </g>
    <g transform="matrix(0.949185,0.219845,-0.219845,0.949185,108.04,17.991)">
        <g transform="matrix(1,0,0,1,-12,-12)">
            <clipPath id="_clip2">
                <rect x="0" y="0" width="24" height="24"/>
            </clipPath>
            <g clip-path="url(#_clip2)">
                <rect x="0" y="0" width="24" height="24" style="fill:none;"/>
                <path d="M13,9.5L18,9.5L18,7.5L13,7.5L13,9.5ZM13,16.5L18,16.5L18,14.5L13,14.5L13,16.5ZM19,21L5,21C3.9,21 3,20.1 3,19L3,5C3,3.9 3.9,3 5,3L19,3C20.1,3 21,3.9 21,5L21,19C21,20.1 20.1,21 19,21ZM6,11L11,11L11,6L6,6L6,11ZM7,7L10,7L10,10L7,10L7,7ZM6,18L11,18L11,13L6,13L6,18ZM7,14L10,14L10,17L7,17L7,14Z"/>
            </g>
        </g>
    </g>
    <g transform="matrix(0.908711,-0.351467,0.351467,0.908711,110.214,61.6275)">
        <g transform="matrix(1,0,0,1,-12,-12)">
            <rect x="0" y="0" width="24" height="24" style="fill:none;"/>
            <path d="M13,9.5L18,9.5L18,7.5L13,7.5L13,9.5ZM13,16.5L18,16.5L18,14.5L13,14.5L13,16.5ZM19,21L5,21C3.9,21 3,20.1 3,19L3,5C3,3.9 3.9,3 5,3L19,3C20.1,3 21,3.9 21,5L21,19C21,20.1 20.1,21 19,21ZM6,11L11,11L11,6L6,6L6,11ZM7,7L10,7L10,10L7,10L7,7ZM6,18L11,18L11,13L6,13L6,18ZM7,14L10,14L10,17L7,17L7,14Z"/>
        </g>
    </g>
    <g transform="matrix(0.974293,-0.00608928,0.00608928,0.974293,18.0753,21.1471)">
        <g transform="matrix(1,0,0,1,-12,-12)">
            <clipPath id="_clip3">
                <rect x="0" y="0" width="24" height="24"/>
            </clipPath>
            <g clip-path="url(#_clip3)">
                <rect x="0" y="0" width="24" height="24" style="fill:none;"/>
                <path d="M13,9.5L18,9.5L18,7.5L13,7.5L13,9.5ZM13,16.5L18,16.5L18,14.5L13,14.5L13,16.5ZM19,21L5,21C3.9,21 3,20.1 3,19L3,5C3,3.9 3.9,3 5,3L19,3C20.1,3 21,3.9 21,5L21,19C21,20.1 20.1,21 19,21ZM6,11L11,11L11,6L6,6L6,11ZM7,7L10,7L10,10L7,10L7,7ZM6,18L11,18L11,13L6,13L6,18ZM7,14L10,14L10,17L7,17L7,14Z"/>
            </g>
        </g>
    </g>
    <g transform="matrix(0.939123,0.259485,-0.259485,0.939123,15.4209,78.0925)">
        <g transform="matrix(1,0,0,1,-12,-12)">
            <rect x="0" y="0" width="24" height="24" style="fill:none;"/>
            <path d="M13,9.5L18,9.5L18,7.5L13,7.5L13,9.5ZM13,16.5L18,16.5L18,14.5L13,14.5L13,16.5ZM19,21L5,21C3.9,21 3,20.1 3,19L3,5C3,3.9 3.9,3 5,3L19,3C20.1,3 21,3.9 21,5L21,19C21,20.1 20.1,21 19,21ZM6,11L11,11L11,6L6,6L6,11ZM7,7L10,7L10,10L7,10L7,7ZM6,18L11,18L11,13L6,13L6,18ZM7,14L10,14L10,17L7,17L7,14Z"/>
        </g>
    </g>
    <defs>
        <linearGradient id="_Linear1" x1="0" y1="0" x2="1" y2="0" gradientUnits="userSpaceOnUse" gradientTransform="matrix(110.567,120.644,-120.644,110.567,3.01877,2.45222)"><stop offset="0" style="stop-color:white;stop-opacity:1"/><stop offset="0.51" style="stop-color:rgb(83,153,221);stop-opacity:1"/><stop offset="1" style="stop-color:rgb(24,118,210);stop-opacity:1"/></linearGradient>
    </defs>
</svg>
